<?xml version="1.0" encoding="UTF-8"?>
<svg width="320mm" height="100mm" version="1.1" viewBox="0 0 320 100" xmlns="http://www.w3.org/2000/svg">
<g transform="translate(0,-197)">
<g transform="matrix(3.2073 0 0 3.2073 -163.77 -491.48)" fill-opacity=".78431">
<path d="m69.378 223.76h-2.5337v2.5086h-12.518v7.5259h-2.4585v-14.977h2.5086v-2.5086h12.493v2.5086h2.5086zm-2.5337 0v-4.942h-12.468v4.942z" fill="#fff"/>
<path d="m89.442 231.29h-2.5337v2.5086h-14.977v-2.4585h15.052v-5.0675h-12.543v-2.4585h12.543v-5.0674h-15.052v-2.4334h15.002v2.5086h2.5086v4.942h-2.5337v2.5839h2.5337z" fill="#fff"/>
<path d="m109.51 223.76h-2.5337v2.5086h-12.518v7.5259h-2.4585v-14.977h2.5086v-2.5086h12.493v2.5086h2.5086zm-2.5337 0v-4.942h-12.468v4.942z" fill="#323232"/>
<path d="m129.57 231.29h-2.5337v2.5086h-14.977v-2.4585h15.052v-5.0675h-12.543v-2.5086h-2.5086v-4.9671h2.5086v-2.4836h14.977v2.4334h-15.027v5.0925h12.543v2.5086h2.5086z" fill="#323232"/>
<path d="m149.61 233.8h-14.977v-2.5337h-2.5086v-14.952h2.4585v15.027h15.027z" fill="#323232"/>
<path d="m57.191 240.48h-0.7728v0.78395h-3.8181v2.3518h-0.74985v-4.6802h0.76515v-0.78396h3.8104v0.78396h0.76515zm-0.7728 0v-1.5444h-3.8028v1.5444z" fill="#323232"/>
<path d="m63.311 242.83h-0.7728v0.78395h-3.8028v-0.79179h-0.76515v-2.3283h0.76515v-0.77611h3.8104v0.78395h0.76515zm-0.7728 0v-2.3283h-3.8028v2.3283z" fill="#323232"/>
<path d="m68.658 240.48h-3.8181v3.1358h-0.74985v-3.1201h0.76515v-0.77611h3.8028z" fill="#323232"/>
<path d="m73.246 243.61h-3.0377v-0.79179h-0.76515v-4.6724h0.74986v1.5679h3.0529v0.76043h-3.0529v2.3675h3.0529z" fill="#323232"/>
<path d="m79.37 243.61h-4.5756v-0.79179h-0.76515v-0.76043h0.7728v-0.78395h3.8181v-0.79963h-3.8258v-0.76044h3.8105v0.78396h0.76515zm-0.7728-0.78395v-0.76827h-3.8028v0.76827z" fill="#323232"/>
<path d="m85.49 242.83h-0.7728v0.78395h-4.5679v-5.4641h0.74985v1.5679h3.8257v0.78395h0.76515zm-0.7728 0v-2.3283h-3.8028v2.3283z" fill="#323232"/>
<path d="m88.541 243.61h-1.5074v-0.79179h-0.76515v-4.6724h0.74985v4.6959h1.5227z" fill="#323232"/>
<path d="m94.668 241.26h-0.76515v0.78395h-3.8181v0.80747h3.8181v0.76043h-3.8028v-0.79179h-0.76515v-2.3283h0.76515v-0.77611h3.8104v0.78395h0.7575zm-0.76515 0v-0.76043h-3.8028v0.76043z" fill="#323232"/>
<path d="m100.8 242.83h-0.7728v0.78395h-4.568v-0.76827h4.5909v-1.5836h-3.8258v-0.78395h-0.76515v-1.5522h0.76515v-0.77611h4.568v0.76044h-4.5833v1.5914h3.8258v0.78395h0.76515z" fill="#323232"/>
<path d="m106.92 243.61h-0.74985v-3.1358h-3.841v3.1358h-0.74986v-5.4641h0.74986v1.5679h3.8258v0.78395h0.76515z" fill="#323232"/>
<path d="m113.04 243.61h-4.5756v-0.79179h-0.76515v-0.76043h0.7728v-0.78395h3.8181v-0.79963h-3.8258v-0.76044h3.8104v0.78396h0.76515zm-0.7728-0.78395v-0.76827h-3.8028v0.76827z" fill="#323232"/>
<path d="m119.15 243.61h-4.5756v-0.79179h-0.76515v-2.3283h0.7728v-0.78395h3.8181v-1.5601h0.74985zm-0.7728-0.78395v-2.3283h-3.8028v2.3283z" fill="#323232"/>
<path d="m125.27 242.83h-0.7728v0.78395h-3.8028v-0.79179h-0.76515v-2.3283h0.76515v-0.77611h3.8104v0.78395h0.76515zm-0.7728 0v-2.3283h-3.8028v2.3283z" fill="#323232"/>
<path d="m131.39 242.83h-0.7728v0.78395h-1.5074v-0.78395h-0.7881v0.78395h-1.5074v-0.79179h-0.76515v-3.1044h0.74985v3.128h1.5456v-3.128h0.74985v3.128h1.5456v-3.128h0.74985z" fill="#323232"/>
<path d="m137.51 243.61h-4.5679v-0.79179h-0.76515v-4.6724h0.74984v4.6959h4.5832z" fill="#323232"/>
<path d="m139.04 238.91h-0.74985v-0.76044h0.74985zm0 4.7037h-0.74985v-3.8962h0.74985z" fill="#323232"/>
<path d="m145.16 242.83h-0.76515v0.78395h-4.568v-0.76827h4.5909v-0.79963h-3.8258v-0.79179h-0.76515v-0.76043h0.76515v-0.77611h4.568v0.76043h-4.5833v0.80747h3.8258v0.78395h0.75751z" fill="#323232"/>
<path d="m149.75 243.61h-3.0377v-0.79179h-0.76515v-4.6724h0.74985v1.5679h3.053v0.76043h-3.053v2.3675h3.053z" fill="#323232"/>
</g>
</g>
</svg>
